<?xml version="1.0" encoding="UTF-8"?>
<!-- Generator: Adobe Illustrator 28.0.0, SVG Export Plug-In . SVG Version: 6.00 Build 0)  -->
<svg xmlns="http://www.w3.org/2000/svg" xmlns:xlink="http://www.w3.org/1999/xlink" version="1.1" id="Layer_1" x="0px" y="0px" viewBox="0 0 1188 358" style="enable-background:new 0 0 1188 358;" xml:space="preserve">
<style type="text/css">
	.st0{fill:#F37443;}
	.st1{fill:#FBAE42;}
	.st2{fill:#2B2E31;stroke:#2B2E31;stroke-width:2.5558;stroke-miterlimit:10;}
	.st3{fill:#2B2E31;}
</style>
<g>
	<g>
		<g>
			<g>
				<path class="st0" d="M136.7,176c0,35.4-26.7,61.2-62.6,61.2H48.9v46.6H2.3V115h71.9C110,115,136.7,140.6,136.7,176z M88.9,176.1      c0-12-8.1-20.5-20.3-20.5H48.9v41h19.7C80.8,196.6,88.9,188.1,88.9,176.1z"></path>
				<path class="st0" d="M221.2,232.1h-16.9v51.7h-46.5V115H231c36.4,0,62.8,24.5,62.8,59.7c0,20.7-10.1,37.7-26.8,47.7l33.5,61.4      h-51.9L221.2,232.1z M204.4,193h21.3c13,0,20.5-7.8,20.5-18.4c0-10.5-7.5-18.3-20.5-18.3h-21.3V193z"></path>
				<path class="st0" d="M431,243.5v40.3H320.9V115h108v40.2h-61.7V180h55.5v38.2h-55.5v25.3H431z"></path>
				<path class="st0" d="M449.5,229.3h48c0,12.1,9.3,17.9,19.9,17.9c9.7,0,19-5.2,19-14.4c0-10.6-13.1-13.7-29.2-17.6      c-24.4-6.1-55.6-13.5-55.6-52c0-33.2,24.4-52.3,64.2-52.3c40.5,0,63.7,20.8,63.7,55.1h-46.7c0-10.7-8-15.7-17.6-15.7      c-8.3,0-16.2,3.6-16.2,11.5c0,9.6,12.7,12.8,28.6,16.8c24.8,6.4,57.3,14.7,57.3,53.3c0,36.9-28.3,56-67.5,56      C476.2,287.9,449.5,266.1,449.5,229.3z"></path>
				<path class="st0" d="M719.5,243.5v40.3H609.4V115h108v40.2h-61.7V180h55.5v38.2h-55.5v25.3H719.5z"></path>
				<path class="st0" d="M896.8,159v124.8h-38.5l-67.1-91.6v91.6h-45.1V115h40.7l64.8,88.6v-82.2V115"></path>
				<path class="st0" d="M960.3,115h95.8v41.9h-45.9v127h-46.7v-127h-42h-3.9"></path>
				<path class="st0" d="M1187,243.5v40.3h-110.1V115h108v40.2h-61.7V180h55.5v38.2h-55.5v25.3H1187z"></path>
			</g>
			<g>
				<path class="st0" d="M862.5,102.3l92.9-92.9c11.7-11.7,30.8-11.7,42.5,0l0,0c11.7,11.7,11.7,30.8,0,42.5l-92.9,92.9"></path>
				<path class="st1" d="M862.7,102.4l-25.2-25.2c-11.7-11.7-11.7-30.8,0-42.5l0,0c11.7-11.7,30.8-11.7,42.5,0l25.2,25.2"></path>
			</g>
		</g>
		<g>
			<path class="st2" d="M6,28.6v22h27.4V54H6v22.7H2.3V25.2h34.4v3.4H6z"></path>
			<path class="st2" d="M86.3,38.3v38.4h-3.5v-8.2c-1.3,2.7-3.2,4.8-5.7,6.3c-2.5,1.5-5.4,2.2-8.8,2.2c-5,0-8.9-1.4-11.8-4.2     c-2.8-2.8-4.3-6.8-4.3-12.1V38.3h3.7v22.1c0,4.3,1.1,7.6,3.3,9.9c2.2,2.3,5.3,3.4,9.3,3.4c4.3,0,7.7-1.3,10.3-4     c2.5-2.7,3.8-6.3,3.8-10.9V38.3H86.3z"></path>
			<path class="st2" d="M138.6,42.2c2.8,2.8,4.2,6.8,4.2,12.1v22.4h-3.7V54.6c0-4.3-1.1-7.6-3.3-9.9c-2.2-2.3-5.2-3.4-9.2-3.4     c-4.5,0-8.1,1.4-10.7,4c-2.6,2.7-3.9,6.3-3.9,10.9v20.4h-3.7V38.3h3.5v8.3c1.3-2.7,3.3-4.8,5.9-6.3c2.6-1.5,5.7-2.3,9.3-2.3     C132.1,38,135.9,39.4,138.6,42.2z"></path>
			<path class="st2" d="M198.8,22.2v54.6h-3.6v-9c-1.5,3-3.7,5.3-6.4,6.9c-2.7,1.6-5.9,2.4-9.3,2.4c-3.6,0-6.8-0.8-9.7-2.5     c-2.9-1.7-5.2-4-6.8-6.9c-1.6-2.9-2.5-6.3-2.5-10.1c0-3.8,0.8-7.1,2.5-10.1c1.6-3,3.9-5.3,6.8-6.9c2.9-1.6,6.1-2.5,9.7-2.5     c3.4,0,6.5,0.8,9.2,2.4c2.7,1.6,4.9,3.9,6.4,6.8V22.2H198.8z M187.6,71.6c2.3-1.4,4.2-3.3,5.5-5.7c1.3-2.4,2-5.2,2-8.4     c0-3.1-0.7-5.9-2-8.4c-1.3-2.5-3.2-4.4-5.5-5.7s-5-2.1-7.9-2.1s-5.6,0.7-7.9,2.1c-2.3,1.4-4.2,3.3-5.5,5.7c-1.4,2.5-2,5.2-2,8.4     c0,3.1,0.7,5.9,2,8.4c1.3,2.5,3.2,4.4,5.5,5.7c2.3,1.4,5,2.1,7.9,2.1S185.2,73,187.6,71.6z"></path>
			<path class="st2" d="M244.8,41.7c2.5,2.4,3.8,6,3.8,10.7v24.3h-3.5v-6.8c-1.2,2.3-3,4-5.4,5.3c-2.4,1.2-5.2,1.9-8.5,1.9     c-4.3,0-7.6-1-10.1-3c-2.5-2-3.7-4.7-3.7-7.9c0-3.2,1.1-5.8,3.4-7.8c2.3-2,5.9-3,10.9-3H245v-3.1c0-3.6-1-6.3-2.9-8.2     c-1.9-1.9-4.8-2.8-8.5-2.8c-2.6,0-5,0.4-7.3,1.3c-2.3,0.9-4.3,2.1-5.9,3.5l-1.8-2.7c1.9-1.7,4.2-3.1,6.9-4c2.7-1,5.5-1.4,8.5-1.4     C238.6,38,242.3,39.2,244.8,41.7z M239.9,71.8c2.2-1.5,3.9-3.6,5-6.4v-7.2h-13.1c-3.8,0-6.5,0.7-8.2,2.1     c-1.7,1.4-2.5,3.3-2.5,5.7c0,2.5,0.9,4.5,2.8,5.9c1.9,1.4,4.5,2.2,7.9,2.2C235,74,237.7,73.2,239.9,71.8z"></path>
			<path class="st2" d="M275.7,74.5c-2.9-1.7-5.2-4-6.9-7c-1.7-3-2.5-6.3-2.5-10c0-3.8,0.8-7.1,2.5-10.1c1.7-3,4-5.3,6.9-6.9     c2.9-1.6,6.3-2.5,10-2.5c3.1,0,5.9,0.6,8.4,1.8c2.5,1.2,4.6,3,6.1,5.3l-2.7,2c-1.4-1.9-3.1-3.3-5.1-4.3c-2-1-4.3-1.4-6.7-1.4     c-3,0-5.7,0.7-8,2c-2.4,1.4-4.2,3.3-5.6,5.7c-1.4,2.5-2,5.3-2,8.5c0,3.2,0.7,6,2,8.5c1.3,2.5,3.2,4.3,5.6,5.7c2.4,1.4,5.1,2,8,2     c2.5,0,4.7-0.5,6.7-1.4c2-1,3.7-2.4,5.1-4.3l2.7,2c-1.6,2.3-3.6,4.1-6.1,5.3c-2.5,1.2-5.3,1.8-8.4,1.8     C282,77,278.6,76.2,275.7,74.5z"></path>
			<path class="st2" d="M317.6,28.1c-0.6-0.6-0.9-1.3-0.9-2.1c0-0.8,0.3-1.5,0.9-2.1c0.6-0.6,1.3-0.9,2.1-0.9s1.5,0.3,2.1,0.8     c0.6,0.6,0.9,1.3,0.9,2.1c0,0.8-0.3,1.5-0.9,2.1c-0.6,0.6-1.3,0.9-2.1,0.9S318.2,28.7,317.6,28.1z M317.9,38.3h3.7v38.4h-3.7     V38.3z"></path>
			<path class="st2" d="M348.9,74.5c-2.9-1.7-5.2-4-6.9-7c-1.7-3-2.5-6.3-2.5-10c0-3.7,0.8-7.1,2.5-10c1.7-3,4-5.3,6.9-7     c2.9-1.7,6.2-2.5,9.8-2.5c3.6,0,6.9,0.8,9.8,2.5c2.9,1.7,5.2,4,6.9,7c1.7,3,2.5,6.3,2.5,10c0,3.7-0.8,7.1-2.5,10     c-1.7,3-4,5.3-6.9,7c-2.9,1.7-6.2,2.5-9.8,2.5C355.1,77,351.8,76.2,348.9,74.5z M366.6,71.6c2.3-1.4,4.2-3.3,5.5-5.7     c1.3-2.4,2-5.2,2-8.4c0-3.1-0.7-5.9-2-8.4c-1.3-2.5-3.2-4.4-5.5-5.7c-2.3-1.4-5-2.1-7.9-2.1c-2.9,0-5.6,0.7-7.9,2.1     c-2.3,1.4-4.2,3.3-5.5,5.7c-1.4,2.5-2,5.2-2,8.4c0,3.1,0.7,5.9,2,8.4c1.3,2.5,3.2,4.4,5.5,5.7c2.3,1.4,5,2.1,7.9,2.1     C361.6,73.7,364.3,73,366.6,71.6z M364.7,23.4h5.3l-11.5,8.7h-4L364.7,23.4z"></path>
			<path class="st2" d="M426,42.2c2.8,2.8,4.2,6.8,4.2,12.1v22.4h-3.7V54.6c0-4.3-1.1-7.6-3.3-9.9c-2.2-2.3-5.2-3.4-9.2-3.4     c-4.5,0-8.1,1.4-10.7,4c-2.6,2.7-3.9,6.3-3.9,10.9v20.4h-3.7V38.3h3.5v8.3c1.3-2.7,3.3-4.8,5.9-6.3c2.6-1.5,5.7-2.3,9.3-2.3     C419.5,38,423.3,39.4,426,42.2z"></path>
		</g>
	</g>
	<g>
		<path class="st3" d="M6.8,356c-2.4-0.8-4.4-1.9-5.7-3.2l1.8-3.9c1.3,1.2,3,2.2,5.1,2.9c2.1,0.7,4.2,1.1,6.4,1.1    c2.9,0,5-0.5,6.5-1.5c1.4-1,2.1-2.3,2.1-3.9c0-1.2-0.4-2.2-1.2-2.9c-0.8-0.7-1.7-1.3-2.9-1.7s-2.8-0.8-4.9-1.3    c-2.6-0.6-4.7-1.3-6.3-1.9c-1.6-0.6-3-1.6-4.1-2.9c-1.1-1.3-1.7-3.1-1.7-5.3c0-1.9,0.5-3.5,1.5-5c1-1.5,2.5-2.7,4.5-3.6    c2-0.9,4.5-1.3,7.4-1.3c2.1,0,4.1,0.3,6.1,0.8c2,0.5,3.7,1.3,5.1,2.3l-1.6,4c-1.5-0.9-3-1.6-4.7-2.1c-1.7-0.5-3.3-0.7-4.9-0.7    c-2.8,0-4.9,0.5-6.3,1.5c-1.4,1-2.1,2.4-2.1,4c0,1.2,0.4,2.2,1.2,2.9c0.8,0.7,1.8,1.3,3,1.7c1.2,0.4,2.8,0.9,4.8,1.3    c2.6,0.6,4.7,1.3,6.3,1.9c1.6,0.6,3,1.6,4.1,2.9c1.1,1.3,1.7,3,1.7,5.2c0,1.8-0.5,3.5-1.5,5c-1,1.5-2.5,2.7-4.5,3.6    c-2,0.9-4.5,1.3-7.5,1.3C11.7,357.2,9.2,356.8,6.8,356z"></path>
		<path class="st3" d="M40.5,322h5v34.8h-5V322z"></path>
		<path class="st3" d="M91.3,322v34.8h-4.1l-20.9-26v26h-5V322h4.1l20.9,26v-26H91.3z"></path>
		<path class="st3" d="M147.7,349.4h-16.2l-3.1,7.5h-8.3l15.5-34.8h8l15.6,34.8h-8.5L147.7,349.4z M145.2,343.2l-5.5-13.3l-5.5,13.3    H145.2z"></path>
		<path class="st3" d="M171.7,356.3c-2.6-0.7-4.6-1.7-6.2-2.9l2.7-6.1c1.5,1.1,3.3,2,5.3,2.6c2.1,0.7,4.1,1,6.2,1c2.3,0,4-0.3,5.1-1    c1.1-0.7,1.6-1.6,1.6-2.7c0-0.8-0.3-1.5-1-2.1c-0.6-0.5-1.5-1-2.5-1.3s-2.4-0.7-4.1-1.1c-2.7-0.6-4.8-1.3-6.5-1.9    c-1.7-0.6-3.1-1.6-4.4-3c-1.2-1.4-1.8-3.3-1.8-5.6c0-2,0.5-3.9,1.6-5.5c1.1-1.6,2.7-2.9,5-3.9c2.2-1,4.9-1.4,8.1-1.4    c2.2,0,4.4,0.3,6.5,0.8c2.1,0.5,4,1.3,5.6,2.3l-2.5,6.1c-3.2-1.8-6.4-2.7-9.7-2.7c-2.3,0-3.9,0.4-5,1.1c-1.1,0.7-1.6,1.7-1.6,2.9    c0,1.2,0.6,2.1,1.9,2.7c1.2,0.6,3.1,1.2,5.7,1.7c2.7,0.6,4.8,1.3,6.5,1.9c1.7,0.6,3.1,1.6,4.4,3s1.8,3.2,1.8,5.5    c0,2-0.6,3.8-1.7,5.5c-1.1,1.6-2.8,2.9-5,3.9c-2.2,1-4.9,1.4-8.1,1.4C177,357.4,174.3,357.1,171.7,356.3z"></path>
		<path class="st3" d="M205.4,322h8.1v34.8h-8.1V322z"></path>
		<path class="st3" d="M230.6,356.3c-2.6-0.7-4.6-1.7-6.2-2.9l2.7-6.1c1.5,1.1,3.3,2,5.3,2.6c2.1,0.7,4.1,1,6.2,1c2.3,0,4-0.3,5.1-1    c1.1-0.7,1.6-1.6,1.6-2.7c0-0.8-0.3-1.5-1-2.1c-0.6-0.5-1.5-1-2.5-1.3s-2.4-0.7-4.1-1.1c-2.7-0.6-4.8-1.3-6.5-1.9    c-1.7-0.6-3.1-1.6-4.4-3c-1.2-1.4-1.8-3.3-1.8-5.6c0-2,0.5-3.9,1.6-5.5c1.1-1.6,2.7-2.9,5-3.9c2.2-1,4.9-1.4,8.1-1.4    c2.2,0,4.4,0.3,6.5,0.8c2.1,0.5,4,1.3,5.6,2.3l-2.5,6.1c-3.2-1.8-6.4-2.7-9.7-2.7c-2.3,0-3.9,0.4-5,1.1c-1.1,0.7-1.6,1.7-1.6,2.9    c0,1.2,0.6,2.1,1.9,2.7c1.2,0.6,3.1,1.2,5.7,1.7c2.7,0.6,4.8,1.3,6.5,1.9c1.7,0.6,3.1,1.6,4.4,3s1.8,3.2,1.8,5.5    c0,2-0.6,3.8-1.7,5.5c-1.1,1.6-2.8,2.9-5,3.9c-2.2,1-4.9,1.4-8.1,1.4C235.8,357.4,233.1,357.1,230.6,356.3z"></path>
		<path class="st3" d="M271,328.6h-11.2V322h30.4v6.6H279v28.3H271V328.6z"></path>
		<path class="st3" d="M326.9,350.4v6.5h-27V322h26.3v6.5h-18.3v7.6h16.2v6.3h-16.2v8.1H326.9z"></path>
		<path class="st3" d="M370.6,322v34.8H364l-17.4-21.2v21.2h-8V322h6.7l17.3,21.2V322H370.6z"></path>
		<path class="st3" d="M391.3,355.1c-2.9-1.5-5.1-3.7-6.8-6.4c-1.6-2.7-2.5-5.8-2.5-9.3c0-3.5,0.8-6.5,2.5-9.3    c1.6-2.7,3.9-4.9,6.8-6.4c2.9-1.5,6.1-2.3,9.7-2.3c3,0,5.7,0.5,8.2,1.6c2.4,1.1,4.5,2.6,6.1,4.6l-5.2,4.8    c-2.4-2.7-5.3-4.1-8.8-4.1c-2.2,0-4.1,0.5-5.8,1.4c-1.7,0.9-3,2.3-4,4c-0.9,1.7-1.4,3.6-1.4,5.8c0,2.2,0.5,4.1,1.4,5.8    c0.9,1.7,2.3,3,4,4c1.7,0.9,3.6,1.4,5.8,1.4c3.5,0,6.4-1.4,8.8-4.1l5.2,4.8c-1.7,2-3.7,3.6-6.2,4.6c-2.5,1.1-5.2,1.6-8.2,1.6    C397.4,357.4,394.2,356.7,391.3,355.1z"></path>
		<path class="st3" d="M426.1,322h8.1v34.8h-8.1V322z"></path>
		<path class="st3" d="M470.8,349.4h-16.2l-3.1,7.5h-8.3l15.5-34.8h8l15.6,34.8h-8.5L470.8,349.4z M468.2,343.2l-5.5-13.3l-5.5,13.3    H468.2z"></path>
		<path class="st3" d="M541.5,322v34.8h-4.1l-20.9-26v26h-5V322h4.1l20.9,26v-26H541.5z"></path>
		<path class="st3" d="M563.5,354.9c-2.8-1.5-5-3.7-6.6-6.4c-1.6-2.7-2.4-5.8-2.4-9.1c0-3.4,0.8-6.4,2.4-9.1    c1.6-2.7,3.8-4.9,6.6-6.4c2.8-1.5,6-2.3,9.5-2.3c3.5,0,6.6,0.8,9.5,2.3c2.8,1.5,5,3.7,6.6,6.4c1.6,2.7,2.4,5.7,2.4,9.1    c0,3.4-0.8,6.4-2.4,9.1c-1.6,2.7-3.8,4.8-6.6,6.4c-2.8,1.5-6,2.3-9.5,2.3C569.5,357.2,566.4,356.5,563.5,354.9z M579.9,351.1    c2-1.2,3.7-2.8,4.8-4.8s1.8-4.3,1.8-6.8c0-2.5-0.6-4.8-1.8-6.8s-2.8-3.6-4.8-4.8c-2-1.2-4.3-1.7-6.9-1.7s-4.9,0.6-6.9,1.7    c-2.1,1.2-3.7,2.8-4.9,4.8c-1.2,2-1.8,4.3-1.8,6.8c0,2.5,0.6,4.8,1.8,6.8c1.2,2,2.8,3.6,4.9,4.8c2.1,1.2,4.4,1.7,6.9,1.7    S577.9,352.2,579.9,351.1z"></path>
		<path class="st3" d="M653.2,322v34.8h-5v-15.5h-20v15.5h-5V322h5v15h20v-15H653.2z"></path>
		<path class="st3" d="M691.3,348.1h-18.5l-3.8,8.7h-5.1l15.8-34.8h4.9l15.8,34.8h-5.2L691.3,348.1z M689.5,344.1l-7.5-17.1    l-7.5,17.1H689.5z"></path>
		<path class="st3" d="M722.1,344.8v12h-4.9v-12.1L703.4,322h5.3l11.2,18.4L731,322h4.9L722.1,344.8z"></path>
		<path class="st3" d="M787,349.4h-16.2l-3.1,7.5h-8.3L775,322h8l15.6,34.8h-8.5L787,349.4z M784.4,343.2l-5.5-13.3l-5.5,13.3H784.4    z"></path>
		<path class="st3" d="M830.7,323.5c2.3,1,4,2.5,5.3,4.4c1.2,1.9,1.8,4.1,1.8,6.7c0,2.6-0.6,4.8-1.8,6.7c-1.2,1.9-3,3.4-5.3,4.4    c-2.3,1-5,1.5-8,1.5h-7v9.6h-8.1V322h15.1C825.7,322,828.4,322.5,830.7,323.5z M827.7,339.1c1.3-1,1.9-2.5,1.9-4.5    c0-2-0.6-3.5-1.9-4.5c-1.3-1-3.1-1.6-5.5-1.6h-6.6v12.1h6.6C824.6,340.7,826.4,340.1,827.7,339.1z"></path>
		<path class="st3" d="M871,356.8l-6.7-9.7h-0.4h-7v9.7h-8.1V322h15.1c3.1,0,5.8,0.5,8,1.5c2.3,1,4,2.5,5.3,4.4    c1.2,1.9,1.8,4.1,1.8,6.7c0,2.6-0.6,4.8-1.9,6.7c-1.2,1.9-3,3.3-5.3,4.3l7.8,11.2H871z M869,330.1c-1.3-1-3.1-1.6-5.5-1.6h-6.6    v12.1h6.6c2.4,0,4.3-0.5,5.5-1.6c1.3-1.1,1.9-2.6,1.9-4.5C870.9,332.7,870.3,331.2,869,330.1z"></path>
		<path class="st3" d="M917.8,350.4v6.5h-27V322h26.3v6.5h-18.3v7.6H915v6.3h-16.2v8.1H917.8z"></path>
		<path class="st3" d="M961.5,322v34.8h-6.6l-17.4-21.2v21.2h-8V322h6.7l17.3,21.2V322H961.5z"></path>
		<path class="st3" d="M975.2,322H991c3.8,0,7.1,0.7,10,2.2c2.9,1.4,5.2,3.5,6.8,6.1c1.6,2.6,2.4,5.7,2.4,9.2c0,3.5-0.8,6.5-2.4,9.2    c-1.6,2.6-3.9,4.7-6.8,6.1c-2.9,1.4-6.2,2.2-10,2.2h-15.8V322z M990.6,350.2c3.5,0,6.3-1,8.3-2.9c2.1-1.9,3.1-4.6,3.1-7.9    c0-3.3-1-5.9-3.1-7.9c-2.1-1.9-4.9-2.9-8.3-2.9h-7.4v21.6H990.6z"></path>
		<path class="st3" d="M1021.7,322h8.1v34.8h-8.1V322z"></path>
		<path class="st3" d="M1071.6,350.3v6.6h-30.5v-5.2l19.1-23h-18.7V322h29.3v5.2l-19.1,23H1071.6z"></path>
		<path class="st3" d="M1105.1,349.4h-16.2l-3.1,7.5h-8.3l15.5-34.8h8l15.6,34.8h-8.5L1105.1,349.4z M1102.5,343.2l-5.5-13.3    l-5.5,13.3H1102.5z"></path>
		<path class="st3" d="M1126.3,356.1c-2-0.9-3.6-2.1-4.9-3.8l4.5-5.4c1.9,2.6,4,3.8,6.5,3.8c3.3,0,4.9-1.9,4.9-5.8v-16.6h-12.2V322    h20.3v22.6c0,4.3-1.1,7.5-3.2,9.6c-2.1,2.1-5.2,3.2-9.4,3.2C1130.5,357.4,1128.3,357,1126.3,356.1z"></path>
		<path class="st3" d="M1185.7,350.4v6.5h-27V322h26.3v6.5h-18.3v7.6h16.2v6.3h-16.2v8.1H1185.7z"></path>
	</g>
</g>
</svg>
