<?xml version="1.0" encoding="utf-8"?>
<!-- Generator: Adobe Illustrator 27.0.0, SVG Export Plug-In . SVG Version: 6.00 Build 0)  -->
<svg version="1.1" id="Layer_1" xmlns="http://www.w3.org/2000/svg" xmlns:xlink="http://www.w3.org/1999/xlink" x="0px" y="0px"
	 viewBox="0 0 595.28 841.89" style="enable-background:new 0 0 595.28 841.89;" xml:space="preserve">
<style type="text/css">
	.st0{clip-path:url(#SVGID_00000086654585080228498070000003700167362912329351_);}
	.st1{fill:#8AAB96;}
</style>
<g>
	<g>
		<g>
			<g>
				<defs>
					<rect id="SVGID_1_" x="163.03" y="273.69" width="269.22" height="69.79"/>
				</defs>
				<clipPath id="SVGID_00000054223662810261124730000015179388204250775480_">
					<use xlink:href="#SVGID_1_"  style="overflow:visible;"/>
				</clipPath>
				<path style="clip-path:url(#SVGID_00000054223662810261124730000015179388204250775480_);" d="M408.02,302.19
					c9.07,0,14.52,5.35,15.33,14.25l-31.76,0.09C392.41,307.46,398.04,302.19,408.02,302.19 M408.2,294.57
					c-15.88,0-26.13,9.26-26.13,24.23c0,15.15,10.07,24.32,26.13,24.32c9.89,0,18.33-3.54,22.68-9.8l-8.08-3.99
					c-2.72,3.81-8.35,6.17-14.61,6.17c-9.35,0-14.97-4.54-16.33-12.52h40.38v-4.26C432.25,303.92,422.72,294.57,408.2,294.57
					 M377.99,334.13l-7.17-4.99c-2.9,3.54-7.44,5.63-13.43,5.63c-10.98,0-17.06-5.63-17.06-15.88c0-10.07,6.26-15.79,17.06-15.79
					c5.17,0,9.62,1.54,12.52,4.36l6.44-5.99c-4.63-4.63-10.71-7.17-19.06-7.17c-16.61,0-26.13,9.35-26.13,24.59
					c0,15.43,9.44,24.59,26.13,24.59C367.1,343.48,373.54,340.12,377.99,334.13 M313.2,341.57h9.35v-49.92h-9.35V341.57z
					 M294.87,341.57h9.35V273.7h-9.35V341.57z M261.93,302.19c9.07,0,14.52,5.35,15.33,14.25l-31.76,0.09
					C246.33,307.46,251.95,302.19,261.93,302.19 M262.12,294.57c-15.88,0-26.13,9.26-26.13,24.23c0,15.15,10.07,24.32,26.13,24.32
					c9.89,0,18.33-3.54,22.68-9.8l-8.08-3.99c-2.72,3.81-8.35,6.17-14.61,6.17c-9.35,0-14.97-4.54-16.33-12.52h40.38v-4.26
					C286.16,303.92,276.63,294.57,262.12,294.57 M216.47,278.24v38.15l-42.65,0.07v-38.22h-10.8v63.34h10.8v-18.87h42.65v18.87h10.8
					v-63.34H216.47z"/>
			</g>
			<rect x="245.49" y="273.69" class="st1" width="35.32" height="8.8"/>
		</g>
		<rect x="163.03" y="316.68" width="117.78" height="6.3"/>
	</g>
	<rect x="313.29" y="273.69" class="st1" width="9.24" height="8.8"/>
</g>
</svg>
